{"asset":{"version":"2.0","generator":"ÆTHERGRID vNext low-poly aviation LOD"},"scene":0,"scenes":[{"nodes":[0]}],"nodes":[{"mesh":0}],"meshes":[{"primitives":[{"attributes":{"POSITION":0},"indices":1,"material":0}]}],"materials":[{"pbrMetallicRoughness":{"baseColorFactor":[0.25,0.82,1.0,1.0],"metallicFactor":0.7,"roughnessFactor":0.28},"doubleSided":true}],"buffers":[{"byteLength":180,"uri":"data:application/octet-stream;base64,"}],"bufferViews":[{"buffer":0,"byteOffset":0,"byteLength":96,"target":34962},{"buffer":0,"byteOffset":96,"byteLength":84,"target":34963}],"accessors":[{"bufferView":0,"byteOffset":0,"componentType":5126,"count":8,"type":"VEC3","min":[-3.2,-4.2,-0.35],"max":[3.5,4.2,0.65]},{"bufferView":1,"byteOffset":0,"componentType":5123,"count":42,"type":"SCALAR"}]}